<svg width="0" height="0" class="hidden">
  <symbol
    version="1.0"
    xmlns="http://www.w3.org/2000/svg"
    preserveAspectRatio="xMidYMid meet"
    viewBox="0 0 532.000000 532.000000"
    id="chevron-down"
  >
    <g
      transform="translate(0.000000,532.000000) scale(0.100000,-0.100000)"
      fill="#fff"
      stroke="none"
    >
      <path
        d="M2190 4574 c-723 -80 -1278 -586 -1422 -1297 -22 -108 -23 -131 -23
-612 0 -445 2 -511 19 -600 69 -373 266 -715 544 -946 217 -181 457 -295 735
-351 108 -22 131 -23 617 -23 484 0 510 1 616 22 371 76 693 264 925 541 142
170 235 339 302 547 69 216 72 252 72 805 0 440 -2 506 -19 595 -122 660 -608
1155 -1271 1296 -93 20 -134 22 -580 24 -264 2 -496 1 -515 -1z m87 -1976
l383 -383 383 383 c268 268 389 382 404 382 58 0 101 -50 88 -102 -4 -14 -177
-195 -423 -441 -388 -388 -420 -417 -452 -417 -32 0 -64 29 -453 418 -230 229
-420 427 -423 440 -8 30 12 77 39 90 57 27 54 29 454 -370z"
      />
    </g>
  </symbol>
</svg>
