<svg width="0" height="0" class="hidden">
  <symbol version="1.0" xmlns="http://www.w3.org/2000/svg" preserveAspectRatio="xMidYMid meet" viewBox="0 0 512.000000 512.000000" id="chevron_down_1">
    <g transform="translate(0.000000,512.000000) scale(0.100000,-0.100000)" fill="#000000" stroke="none">
      <path d="M2375 4899 c-782 -64 -1478 -510 -1864 -1196 -324 -576 -385 -1281
-167 -1912 116 -334 288 -611 540 -869 705 -723 1792 -913 2701 -472 491 239
898 659 1115 1150 358 809 242 1724 -306 2422 -129 164 -385 396 -564 510
-199 127 -446 236 -665 293 -166 44 -277 62 -445 75 -150 11 -199 11 -345 -1z
m-782 -1725 c17 -9 242 -226 500 -482 l467 -467 468 467 c257 256 483 474 502
484 37 19 116 24 163 11 51 -14 116 -84 133 -144 19 -64 13 -110 -21 -168 -37
-62 -1112 -1131 -1157 -1150 -48 -19 -128 -19 -176 0 -47 20 -1121 1089 -1160
1155 -22 36 -27 57 -26 105 0 34 8 73 17 91 21 41 90 102 124 110 16 3 33 7
38 10 19 7 96 -6 128 -22z"></path>
    </g>
  </symbol>
  <symbol version="1.0" xmlns="http://www.w3.org/2000/svg" preserveAspectRatio="xMidYMid meet" viewBox="0 0 512.000000 512.000000" id="chevron_right">
    <g transform="translate(0.000000,512.000000) scale(0.100000,-0.100000)" fill="#000000" stroke="none">
      <path d="M2380 4954 c-160 -18 -230 -29 -330 -51 -900 -197 -1601 -880 -1820
-1775 -52 -213 -64 -322 -64 -568 0 -246 13 -358 64 -568 92 -375 262 -706
515 -1000 382 -445 916 -731 1515 -814 123 -17 478 -16 600 1 698 96 1291 459
1679 1026 207 303 338 637 397 1017 25 157 25 518 1 675 -82 521 -313 985
-671 1347 -369 374 -830 607 -1363 691 -93 15 -448 28 -523 19z m-78 -1447
c35 -15 949 -827 974 -865 25 -37 25 -127 0 -164 -10 -16 -227 -214 -482 -440
-316 -282 -476 -418 -503 -427 -121 -45 -255 105 -196 219 8 15 190 184 405
375 214 190 390 350 390 355 0 5 -177 166 -394 359 -402 358 -416 372 -416
442 0 111 121 191 222 146z"></path>
    </g>
  </symbol>
</svg>